HIERARCHY
ROOT Hips
{
	OFFSET 0.000000 0.000000 0.000000
	CHANNELS 6 Xposition Yposition Zposition Zrotation Yrotation Xrotation 
	JOINT LHipJoint
	{
		OFFSET 0.000000 0.000000 0.000000
		CHANNELS 3 Zrotation Yrotation Xrotation
		JOINT LeftUpLeg
		{
			OFFSET 1.363060 -1.794630 0.839290
			CHANNELS 3 Zrotation Yrotation Xrotation
			JOINT LeftLeg
			{
				OFFSET 2.448110 -6.726130 0.000000
				CHANNELS 3 Zrotation Yrotation Xrotation
				JOINT LeftFoot
				{
					OFFSET 2.562200 -7.039590 0.000000
					CHANNELS 3 Zrotation Yrotation Xrotation
					JOINT LeftToeBase
					{
						OFFSET 0.157640 -0.433110 2.322550
						CHANNELS 3 Zrotation Yrotation Xrotation
						End Site
						{
							OFFSET 0.000000 0.000000 0.000000
						}
					}
				}
			}
		}
	}
	JOINT RHipJoint
	{
		OFFSET 0.000000 0.000000 0.000000
		CHANNELS 3 Zrotation Yrotation Xrotation
		JOINT RightUpLeg
		{
			OFFSET -1.305520 -1.794630 0.839290
			CHANNELS 3 Zrotation Yrotation Xrotation
			JOINT RightLeg
			{
				OFFSET -2.542530 -6.985550 0.000000
				CHANNELS 3 Zrotation Yrotation Xrotation
				JOINT RightFoot
				{
					OFFSET -2.568260 -7.056230 0.000000
					CHANNELS 3 Zrotation Yrotation Xrotation
					JOINT RightToeBase
					{
						OFFSET -0.164730 -0.452590 2.363150
						CHANNELS 3 Zrotation Yrotation Xrotation
						End Site
						{
							OFFSET 0.000000 0.000000 0.000000
						}
					}
				}
			}
		}
	}
	JOINT LowerBack
	{
		OFFSET 0.000000 0.000000 0.000000
		CHANNELS 3 Zrotation Yrotation Xrotation
		JOINT Spine
		{
			OFFSET 0.028270 2.035590 -0.193380
			CHANNELS 3 Zrotation Yrotation Xrotation
			JOINT Spine1
			{
				OFFSET 0.056720 2.048850 -0.042750
				CHANNELS 3 Zrotation Yrotation Xrotation
				JOINT Neck
				{
					OFFSET 0.000000 0.000000 0.000000
					CHANNELS 3 Zrotation Yrotation Xrotation
					JOINT Neck1
					{
						OFFSET -0.054170 1.746240 0.172020
						CHANNELS 3 Zrotation Yrotation Xrotation
						JOINT Head
						{
							OFFSET 0.104070 1.761360 -0.123970
							CHANNELS 3 Zrotation Yrotation Xrotation
							End Site
							{
								OFFSET 0.000000 0.000000 0.000000
							}
						}
					}
				}
				JOINT LeftShoulder
				{
					OFFSET 0.000000 0.000000 0.000000
					CHANNELS 3 Zrotation Yrotation Xrotation
					JOINT LeftArm
					{
						OFFSET 3.362410 1.200890 -0.311210
						CHANNELS 3 Zrotation Yrotation Xrotation
						JOINT LeftForeArm
						{
							OFFSET 4.983000 -0.000000 -0.000000
							CHANNELS 3 Zrotation Yrotation Xrotation
							JOINT LeftHand
							{
								OFFSET 3.483560 -0.000000 -0.000000
								CHANNELS 3 Zrotation Yrotation Xrotation
								JOINT LeftFingerBase
								{
									OFFSET 0.000000 0.000000 0.000000
									CHANNELS 3 Zrotation Yrotation Xrotation
									JOINT LeftHandIndex1
									{
										OFFSET 0.715260 -0.000000 -0.000000
										CHANNELS 3 Zrotation Yrotation Xrotation
										End Site
										{
											OFFSET 0.000000 0.000000 0.000000
										}
									}
								}
								JOINT LThumb
								{
									OFFSET 0.000000 0.000000 0.000000
									CHANNELS 3 Zrotation Yrotation Xrotation
									End Site
									{
										OFFSET 0.000000 0.000000 0.000000
									}
								}
							}
						}
					}
				}
				JOINT RightShoulder
				{
					OFFSET 0.000000 0.000000 0.000000
					CHANNELS 3 Zrotation Yrotation Xrotation
					JOINT RightArm
					{
						OFFSET -3.136600 1.374050 -0.404650
						CHANNELS 3 Zrotation Yrotation Xrotation
						JOINT RightForeArm
						{
							OFFSET -5.241900 -0.000000 -0.000000
							CHANNELS 3 Zrotation Yrotation Xrotation
							JOINT RightHand
							{
								OFFSET -3.444170 -0.000000 -0.000000
								CHANNELS 3 Zrotation Yrotation Xrotation
								JOINT RightFingerBase
								{
									OFFSET 0.000000 0.000000 0.000000
									CHANNELS 3 Zrotation Yrotation Xrotation
									JOINT RightHandIndex1
									{
										OFFSET -0.622530 -0.000000 -0.000000
										CHANNELS 3 Zrotation Yrotation Xrotation
										End Site
										{
											OFFSET 0.000000 0.000000 0.000000
										}
									}
								}
								JOINT RThumb
								{
									OFFSET 0.000000 0.000000 0.000000
									CHANNELS 3 Zrotation Yrotation Xrotation
									End Site
									{
										OFFSET 0.000000 0.000000 0.000000
									}
								}
							}
						}
					}
				}
			}
		}
	}
}
MOTION
Frames: 8
Frame Time: 0.008333
10.786482 17.880608 6.381123 -174.178563 -22.663777 -174.409501 -1.732361 -1.096117 -0.288274 -5.271714 -2.133267 -18.363989 1.625131 10.060861 28.317424 0.120998 1.070396 -4.317019 0.354700 -3.826200 -10.588300 -1.008526 0.044244 -1.090272 30.292332 2.870114 -20.843966 -2.032308 -9.157806 25.412873 0.272420 -4.545727 -6.591850 -0.849600 -5.878800 16.433200 2.325830 3.132273 6.443240 0.031192 3.848023 -2.018595 0.415428 2.248614 -0.010889 -14.011404 -13.927807 -3.229808 7.177275 -18.572299 12.890566 4.075600 -9.656800 9.528100 -6.728282 3.475090 -1.585166 -74.163651 2.782109 27.183012 26.706831 -41.801058 -11.363891 0.867907 -0.775403 4.486431 3.447872 31.698663 1.359900 -7.125000 0.000000 0.000000 -33.444900 59.174200 -12.439900 1.390427 -2.000968 0.410522 84.353094 12.173375 32.387057 -46.244481 51.887484 -22.051666 -0.081562 -0.536286 -32.831073 -31.130403 31.120192 -17.389800 7.125000 0.000000 0.000000 0.527400 5.760300 0.577700 
10.809617 17.875422 6.425399 -174.202879 -22.696684 -174.180905 -1.729407 -1.122820 -0.337062 -5.234120 -2.333446 -18.799656 1.650427 10.111962 28.466651 0.113282 1.102063 -4.261652 0.406400 -4.092500 -11.337000 -1.011526 0.046742 -1.064484 30.213834 3.376250 -21.315563 -2.062313 -9.225302 25.621593 0.319848 -4.926481 -6.551943 -0.997500 -6.355900 17.820700 2.362681 3.165781 6.659854 0.042545 3.899766 -2.024364 0.407392 2.277564 -0.122041 -13.641507 -13.953305 -3.268841 6.813062 -18.491548 12.395379 3.888200 -9.595200 9.221400 -6.704202 3.450264 -1.580767 -74.213560 2.686872 26.917015 27.335268 -42.302551 -11.761765 0.869122 -0.763721 4.910577 3.017227 32.606145 1.153000 -7.125000 0.000000 0.000000 -34.735900 59.802700 -13.526900 1.422102 -1.993651 0.404483 84.540643 12.044327 32.089243 -47.973960 52.659538 -23.356045 -0.065953 -0.550294 -33.495228 -31.624801 30.283033 -17.326400 7.125000 0.000000 0.000000 0.082700 5.033000 0.089600 
10.827467 17.859367 6.471470 -174.065726 -22.792142 -174.353553 -1.722111 -1.126653 -0.360186 -5.056952 -2.599821 -18.912325 1.695980 10.188346 28.703890 0.127010 1.020146 -4.237433 0.385300 -3.986100 -11.037600 -1.020835 0.048580 -1.057459 30.287409 3.658123 -21.421873 -2.076902 -9.261543 25.733350 0.359695 -5.257811 -6.626357 -1.231800 -7.038600 19.829800 2.625835 3.167203 7.245252 0.065413 3.936898 -2.010395 0.318683 2.292897 -0.373704 -13.662330 -13.902860 -2.996543 6.931436 -18.362737 11.872216 3.992600 -9.522200 8.964100 -6.700249 3.442604 -1.573970 -74.223020 2.739087 26.713995 27.934157 -42.775628 -12.163241 0.868841 -0.755948 5.255723 2.523567 32.861556 0.885400 -7.125000 0.000000 0.000000 -35.459700 59.879800 -13.919800 1.428339 -1.951418 0.419078 84.748193 11.914507 31.651003 -49.202899 53.176005 -24.288047 -0.062302 -0.559717 -33.375592 -31.969399 30.075900 -17.455000 7.125000 0.000000 0.000000 -0.149500 4.927100 -0.161800 
10.839633 17.842215 6.512455 -174.046772 -22.895879 -174.468361 -1.714009 -1.134502 -0.381660 -5.042579 -2.743145 -19.097140 1.749973 10.279370 28.990215 0.147631 0.892816 -4.199107 0.363900 -3.875200 -10.725900 -1.021712 0.051064 -1.052288 30.276488 3.565619 -21.570386 -2.077638 -9.257979 25.728531 0.373668 -5.345321 -6.473294 -1.352800 -7.362700 20.794600 2.857640 3.180972 7.784506 0.048555 3.992942 -2.008386 0.107009 2.319795 -0.643834 -13.764273 -13.856698 -2.668935 7.266728 -18.295005 11.479545 4.187800 -9.477400 8.804200 -6.715332 3.446933 -1.574158 -74.110900 2.927092 26.823268 28.422031 -43.157709 -12.496696 0.860005 -0.765632 4.549979 3.936502 32.417768 1.658600 -7.125000 0.000000 0.000000 -33.652700 59.879700 -13.106500 1.414795 -1.902372 0.439439 85.019201 11.922567 31.148467 -50.232446 53.585072 -25.075136 -0.056541 -0.571292 -33.327248 -32.295996 29.647765 -17.463700 7.125000 0.000000 0.000000 -0.417200 4.581300 -0.449200 
10.853993 17.830448 6.547856 -173.941377 -22.949719 -174.339839 -1.695858 -1.156386 -0.422465 -4.929856 -2.751716 -19.555195 1.797348 10.352279 29.222516 0.183588 0.693265 -4.209715 0.331200 -3.698700 -10.230400 -1.026258 0.050074 -1.032543 30.337471 3.722990 -21.931491 -2.081051 -9.260662 25.742246 0.386603 -5.423091 -6.307403 -1.523400 -7.793500 22.088700 3.148611 3.172744 7.962240 0.043581 4.006314 -2.011096 -0.074599 2.328759 -0.713847 -13.915692 -13.828201 -2.670188 7.529300 -18.237843 11.331176 4.332900 -9.437600 8.810900 -6.729940 3.460783 -1.581607 -74.040093 3.095403 26.835137 28.957964 -43.576941 -12.863673 0.855310 -0.768376 3.558674 5.177708 32.274949 2.341600 -7.125000 0.000000 0.000000 -32.300900 60.080900 -12.666900 1.402950 -1.884638 0.446193 85.171366 12.080344 30.953803 -51.131926 53.936156 -25.770167 -0.049920 -0.580003 -33.492056 -32.766298 29.290128 -17.593800 7.125000 0.000000 0.000000 -0.753100 4.349500 -0.808100 
10.870746 17.839323 6.585850 -173.886080 -23.063813 -173.966191 -1.676158 -1.197697 -0.492358 -4.846055 -2.790527 -20.237288 1.828034 10.400691 29.371392 0.211819 0.517022 -4.090971 0.289600 -3.460900 -9.564700 -1.027699 0.049389 -1.005593 30.340828 3.997608 -22.578188 -2.093188 -9.285831 25.821323 0.407631 -5.582312 -6.242459 -1.606700 -7.993800 22.695100 3.388160 3.151559 7.800503 0.042389 3.976297 -1.984013 -0.201086 2.318322 -0.502195 -14.001277 -13.874524 -2.873504 7.559517 -18.241258 11.208974 4.355600 -9.424700 8.826400 -6.737500 3.486298 -1.580238 -74.018564 3.135433 26.697009 29.578977 -44.067646 -13.301474 0.857229 -0.761713 2.957560 5.458892 32.414015 2.508600 -7.125000 0.000000 0.000000 -32.158000 60.269400 -12.750000 1.400580 -1.912909 0.448406 85.232945 12.409775 30.858530 -52.117885 54.320903 -26.540857 -0.043595 -0.585784 -33.561235 -33.290132 29.025696 -17.802000 7.125000 0.000000 0.000000 -1.102600 4.232700 -1.181100 
10.886701 17.840919 6.628331 -174.029227 -23.215066 -173.454156 -1.670706 -1.244115 -0.564033 -4.963857 -2.874039 -20.923670 1.833617 10.420693 29.418213 0.214462 0.475860 -3.934277 0.271700 -3.352900 -9.262800 -1.020274 0.052112 -0.978857 30.160373 4.114496 -23.418924 -2.119857 -9.337514 25.985259 0.418890 -5.659883 -6.134459 -1.496200 -7.726600 21.886800 3.416485 3.158085 7.594953 0.032719 3.969106 -1.959272 -0.233991 2.319550 -0.295655 -14.077392 -13.978729 -3.020697 7.493147 -18.293453 10.937122 4.335900 -9.435400 8.759000 -6.741368 3.509754 -1.575107 -74.053713 3.143642 26.631337 30.080308 -44.457535 -13.656748 0.858568 -0.755177 2.434265 5.700729 32.569741 2.655900 -7.125000 0.000000 0.000000 -32.070200 60.461900 -12.859500 1.401636 -1.943081 0.450350 85.162560 12.856307 30.633342 -52.849094 54.595812 -27.119773 -0.039038 -0.587380 -33.448458 -33.755909 28.821458 -18.001200 7.125000 0.000000 0.000000 -1.409600 4.159900 -1.508600 
10.899665 17.824266 6.671211 -173.918025 -23.363492 -173.229260 -1.667455 -1.261118 -0.592715 -4.850681 -2.995296 -21.273688 1.815510 10.393149 29.324210 0.198318 0.570862 -3.936113 0.267700 -3.328600 -9.194900 -1.014873 0.045599 -0.944436 30.210377 4.229579 -24.117279 -2.171313 -9.443720 26.321360 0.420624 -5.673562 -6.140284 -1.455000 -7.624300 21.578500 3.787541 3.172043 7.800271 0.017257 4.025480 -2.016597 -0.510732 2.356507 -0.564479 -14.063999 -14.008237 -2.923134 7.414886 -18.296660 10.742614 4.321700 -9.439400 8.677800 -6.752945 3.499342 -1.589971 -73.951644 3.473061 26.952496 30.646119 -44.855910 -14.026339 0.859651 -0.745133 1.480949 6.454526 33.306972 3.140000 -7.125000 0.000000 0.000000 -32.067700 61.274700 -13.483200 1.388236 -1.911022 0.449244 85.093631 12.918949 30.365409 -53.322143 54.749521 -27.488912 -0.035813 -0.594100 -33.450578 -34.112202 28.550497 -18.093100 7.125000 0.000000 0.000000 -1.665700 3.985000 -1.778200 
